<svg width="24" height="18" viewBox="0 0 24 18" xmlns="http://www.w3.org/2000/svg"><title>Page-1</title><path d="M0 15.375V2.626a1.25 1.25 0 0 0 .047-.153C.294 1.062 1.523.005 2.958.004 8.985 0 15.012 0 21.04.004c1.367 0 2.55.96 2.871 2.287.028.113.06.224.088.335v12.749a.625.625 0 0 0-.042.105c-.223 1.245-1.088 2.203-2.317 2.433-.575.109-1.18.082-1.772.083-5.612.005-11.225.005-16.838 0-1.38 0-2.539-.873-2.914-2.175-.042-.144-.077-.296-.115-.446zM8.165 8.78c-.375.37-.73.72-1.078 1.074l-3.82 3.808c-.23.229-.337.49-.24.804.174.573.844.71 1.294.265 1.588-1.58 3.173-3.166 4.756-4.755.058-.068.111-.142.158-.22.131.12.218.196.304.273l1.908 1.734c.363.328.742.324 1.106-.005l1.98-1.795c.06-.056.127-.111.2-.18.598.598 1.182 1.185 1.765 1.77l3.18 3.18c.215.216.462.317.763.237.583-.158.75-.836.308-1.28a688.968 688.968 0 0 0-3.196-3.2c-.568-.567-1.14-1.133-1.718-1.71.075-.072.137-.131.2-.188l2.322-2.11 2.375-2.16c.23-.207.32-.462.244-.76a.71.71 0 0 0-.534-.54c-.3-.08-.543.03-.767.234-2.493 2.27-4.989 4.54-7.489 6.806-.06.057-.125.11-.191.167L8.422 6.985a4686.65 4686.65 0 0 1-4.126-3.744c-.217-.198-.46-.292-.75-.212v.001a.714.714 0 0 0-.53.54c-.073.3.023.552.252.76.983.89 1.966 1.784 2.948 2.678l1.949 1.773z" fill="#FEFEFE" fill-rule="nonzero"/></svg>